<svg
    width="105"
    height="50"
    viewBox="0 0 105 50"
    fill="none"
    xmlns="http://www.w3.org/2000/svg"
    >
    <rect width="105" height="50" rx="8" fill="#414141" />
    <path
    d="M15.088 27.624V24.672H18.496C19.184 24.672 19.76 24.536 20.224 24.264C20.704 23.992 21.064 23.616 21.304 23.136C21.56 22.656 21.688 22.104 21.688 21.48C21.688 20.856 21.56 20.304 21.304 19.824C21.064 19.344 20.704 18.976 20.224 18.72C19.76 18.448 19.184 18.312 18.496 18.312H15.088V15.36H18.208C19.68 15.36 20.928 15.6 21.952 16.08C22.992 16.56 23.784 17.248 24.328 18.144C24.872 19.024 25.144 20.072 25.144 21.288V21.672C25.144 22.888 24.872 23.944 24.328 24.84C23.784 25.72 22.992 26.408 21.952 26.904C20.928 27.384 19.68 27.624 18.208 27.624H15.088ZM12.16 33V15.36H15.568V33H12.16ZM32.1329 33.408C30.6289 33.408 29.4609 32.912 28.6289 31.92C27.8129 30.928 27.4049 29.456 27.4049 27.504V19.944H30.7409V27.792C30.7409 28.592 30.9649 29.232 31.4129 29.712C31.8609 30.176 32.4689 30.408 33.2369 30.408C34.0049 30.408 34.6289 30.16 35.1089 29.664C35.6049 29.168 35.8529 28.496 35.8529 27.648V19.944H39.1889V33H36.5489V27.456H36.8129C36.8129 28.768 36.6449 29.864 36.3089 30.744C35.9729 31.624 35.4689 32.288 34.7969 32.736C34.1249 33.184 33.2849 33.408 32.2769 33.408H32.1329ZM43.021 37.8V19.968H45.661V25.584L45.253 25.56C45.317 24.232 45.589 23.12 46.069 22.224C46.565 21.328 47.221 20.664 48.037 20.232C48.853 19.784 49.765 19.56 50.773 19.56C51.701 19.56 52.533 19.728 53.269 20.064C54.021 20.4 54.661 20.872 55.189 21.48C55.733 22.088 56.149 22.8 56.437 23.616C56.725 24.416 56.869 25.28 56.869 26.208V26.712C56.869 27.656 56.725 28.536 56.437 29.352C56.165 30.152 55.757 30.864 55.213 31.488C54.685 32.096 54.045 32.576 53.293 32.928C52.541 33.264 51.701 33.432 50.773 33.432C49.797 33.432 48.901 33.232 48.085 32.832C47.285 32.416 46.637 31.784 46.141 30.936C45.645 30.072 45.365 28.96 45.301 27.6L46.357 29.208V37.8H43.021ZM49.933 30.624C50.653 30.624 51.277 30.448 51.805 30.096C52.349 29.744 52.773 29.256 53.077 28.632C53.381 27.992 53.533 27.272 53.533 26.472C53.533 25.64 53.381 24.92 53.077 24.312C52.773 23.704 52.349 23.232 51.805 22.896C51.277 22.544 50.653 22.368 49.933 22.368C49.277 22.368 48.669 22.512 48.109 22.8C47.565 23.088 47.117 23.512 46.765 24.072C46.429 24.632 46.261 25.304 46.261 26.088V27.048C46.261 27.8 46.437 28.44 46.789 28.968C47.141 29.496 47.597 29.904 48.157 30.192C48.717 30.48 49.309 30.624 49.933 30.624ZM62.9943 27.624V24.672H66.4023C67.0903 24.672 67.6663 24.536 68.1303 24.264C68.6103 23.992 68.9703 23.616 69.2103 23.136C69.4663 22.656 69.5943 22.104 69.5943 21.48C69.5943 20.856 69.4663 20.304 69.2103 19.824C68.9703 19.344 68.6103 18.976 68.1303 18.72C67.6663 18.448 67.0903 18.312 66.4023 18.312H62.9943V15.36H66.1143C67.5863 15.36 68.8343 15.6 69.8583 16.08C70.8983 16.56 71.6903 17.248 72.2343 18.144C72.7783 19.024 73.0503 20.072 73.0503 21.288V21.672C73.0503 22.888 72.7783 23.944 72.2343 24.84C71.6903 25.72 70.8983 26.408 69.8583 26.904C68.8343 27.384 67.5863 27.624 66.1143 27.624H62.9943ZM60.0663 33V15.36H63.4743V33H60.0663ZM83.3311 33V29.136H82.7791V24.84C82.7791 24.088 82.5951 23.528 82.2271 23.16C81.8591 22.792 81.2911 22.608 80.5231 22.608C80.1231 22.608 79.6431 22.616 79.0831 22.632C78.5231 22.648 77.9551 22.672 77.3791 22.704C76.8191 22.72 76.3151 22.744 75.8671 22.776V19.944C76.2351 19.912 76.6511 19.88 77.1151 19.848C77.5791 19.816 78.0511 19.8 78.5311 19.8C79.0271 19.784 79.4911 19.776 79.9231 19.776C81.2671 19.776 82.3791 19.952 83.2591 20.304C84.1551 20.656 84.8271 21.208 85.2751 21.96C85.7391 22.712 85.9711 23.696 85.9711 24.912V33H83.3311ZM79.1311 33.336C78.1871 33.336 77.3551 33.168 76.6351 32.832C75.9311 32.496 75.3791 32.016 74.9791 31.392C74.5951 30.768 74.4031 30.016 74.4031 29.136C74.4031 28.176 74.6351 27.392 75.0991 26.784C75.5791 26.176 76.2431 25.72 77.0911 25.416C77.9551 25.112 78.9631 24.96 80.1151 24.96H83.1391V26.952H80.0671C79.2991 26.952 78.7071 27.144 78.2911 27.528C77.8911 27.896 77.6911 28.376 77.6911 28.968C77.6911 29.56 77.8911 30.04 78.2911 30.408C78.7071 30.776 79.2991 30.96 80.0671 30.96C80.5311 30.96 80.9551 30.88 81.3391 30.72C81.7391 30.544 82.0671 30.256 82.3231 29.856C82.5951 29.44 82.7471 28.88 82.7791 28.176L83.5951 29.112C83.5151 30.024 83.2911 30.792 82.9231 31.416C82.5711 32.04 82.0751 32.52 81.4351 32.856C80.8111 33.176 80.0431 33.336 79.1311 33.336ZM89.7124 33V15.48H93.0484V33H89.7124ZM88.0804 17.976V15.48H93.0484V17.976H88.0804Z"
    fill="white"
    />
</svg>